<?xml version="1.0" encoding="UTF-8" standalone="no"?>
<!DOCTYPE svg PUBLIC "-//W3C//DTD SVG 1.1//EN"
 "http://www.w3.org/Graphics/SVG/1.1/DTD/svg11.dtd">
<!-- Generated by graphviz version 2.43.0 (0)
 -->
<!-- Title: wikiapiary Pages: 1 -->
<svg width="1564pt" height="630pt"
 viewBox="0.00 0.00 1563.68 629.68" xmlns="http://www.w3.org/2000/svg" xmlns:xlink="http://www.w3.org/1999/xlink">
<g id="graph0" class="graph" transform="scale(1 1) rotate(0) translate(15.84 613.84)">
<title>wikiapiary</title>
<polygon fill="#ffffff" stroke="transparent" points="-15.84,15.84 -15.84,-613.84 1547.84,-613.84 1547.84,15.84 -15.84,15.84"/>
<g id="clust1" class="cluster">
<title>cluster_external</title>
<path fill="#fafafa" stroke="#6366f1" stroke-width="2.2" d="M242,-451C242,-451 757,-451 757,-451 763,-451 769,-457 769,-463 769,-463 769,-578 769,-578 769,-584 763,-590 757,-590 757,-590 242,-590 242,-590 236,-590 230,-584 230,-578 230,-578 230,-463 230,-463 230,-457 236,-451 242,-451"/>
<text text-anchor="middle" x="499.5" y="-570" font-family="Liberation Sans" font-size="20.00" fill="#0f172a">OUTSIDE THE CLUSTER</text>
</g>
<g id="clust3" class="cluster">
<title>cluster_k8s</title>
<path fill="#f8fafc" stroke="#334155" stroke-width="2.6" d="M20,-8C20,-8 1512,-8 1512,-8 1518,-8 1524,-14 1524,-20 1524,-20 1524,-409 1524,-409 1524,-415 1518,-421 1512,-421 1512,-421 20,-421 20,-421 14,-421 8,-415 8,-409 8,-409 8,-20 8,-20 8,-14 14,-8 20,-8"/>
<text text-anchor="middle" x="766" y="-401" font-family="Liberation Sans" font-size="20.00" fill="#0f172a">KUBERNETES CLUSTER</text>
</g>
<!-- git -->
<g id="node1" class="node">
<title>git</title>
<path fill="#eef2ff" stroke="#4f46e5" stroke-width="2.4" d="M470,-542C470,-542 260,-542 260,-542 254,-542 248,-536 248,-530 248,-530 248,-481 248,-481 248,-475 254,-469 260,-469 260,-469 470,-469 470,-469 476,-469 482,-475 482,-481 482,-481 482,-530 482,-530 482,-536 476,-542 470,-542"/>
<text text-anchor="middle" x="365" y="-510.7" font-family="Liberation Sans" font-size="16.00" fill="#312e81">GitHub delivery</text>
<text text-anchor="middle" x="365" y="-492.7" font-family="Liberation Sans" font-size="16.00" fill="#312e81">contributors • PR + CI • main</text>
</g>
<!-- argo -->
<g id="node3" class="node">
<title>argo</title>
<path fill="#f0fdf4" stroke="#16a34a" stroke-width="2.4" d="M521,-369C521,-369 311,-369 311,-369 305,-369 299,-363 299,-357 299,-357 299,-308 299,-308 299,-302 305,-296 311,-296 311,-296 521,-296 521,-296 527,-296 533,-302 533,-308 533,-308 533,-357 533,-357 533,-363 527,-369 521,-369"/>
<text text-anchor="middle" x="416" y="-337.7" font-family="Liberation Sans" font-size="16.00" fill="#14532d">Argo CD</text>
<text text-anchor="middle" x="416" y="-319.7" font-family="Liberation Sans" font-size="16.00" fill="#14532d">pull • prune • self&#45;heal</text>
</g>
<!-- git&#45;&gt;argo -->
<g id="edge10" class="edge">
<title>git&#45;&gt;argo</title>
<path fill="none" stroke="#475569" stroke-width="2.4" d="M375.69,-468.65C383.84,-441.31 395.09,-403.61 403.63,-374.97"/>
<polygon fill="#475569" stroke="#475569" stroke-width="2.4" points="405.71,-375.36 405.41,-369.01 401.68,-374.16 405.71,-375.36"/>
<text text-anchor="middle" x="426" y="-432.6" font-family="Liberation Sans" font-size="13.00" fill="#334155">desired state</text>
</g>
<!-- traffic -->
<g id="node2" class="node">
<title>traffic</title>
<path fill="#eff6ff" stroke="#0284c7" stroke-width="2.4" d="M739,-542C739,-542 529,-542 529,-542 523,-542 517,-536 517,-530 517,-530 517,-481 517,-481 517,-475 523,-469 529,-469 529,-469 739,-469 739,-469 745,-469 751,-475 751,-481 751,-481 751,-530 751,-530 751,-536 745,-542 739,-542"/>
<text text-anchor="middle" x="634" y="-510.7" font-family="Liberation Sans" font-size="16.00" fill="#0c4a6e">Public entry</text>
<text text-anchor="middle" x="634" y="-492.7" font-family="Liberation Sans" font-size="16.00" fill="#0c4a6e">DNS • readers • editors • bots</text>
</g>
<!-- edge_gateway -->
<g id="node5" class="node">
<title>edge_gateway</title>
<path fill="#fff7ed" stroke="#ea580c" stroke-width="2.4" d="M252,-236C252,-236 42,-236 42,-236 36,-236 30,-230 30,-224 30,-224 30,-175 30,-175 30,-169 36,-163 42,-163 42,-163 252,-163 252,-163 258,-163 264,-169 264,-175 264,-175 264,-224 264,-224 264,-230 258,-236 252,-236"/>
<text text-anchor="middle" x="147" y="-204.7" font-family="Liberation Sans" font-size="16.00" fill="#7c2d12">Edge gateway</text>
<text text-anchor="middle" x="147" y="-186.7" font-family="Liberation Sans" font-size="16.00" fill="#7c2d12">LB • NGINX • BunkerWeb</text>
</g>
<!-- traffic&#45;&gt;edge_gateway -->
<g id="edge11" class="edge">
<title>traffic&#45;&gt;edge_gateway</title>
<path fill="none" stroke="#475569" stroke-width="2.4" d="M631.56,-468.66C628.32,-419.75 623,-339.5 623,-339.5 623,-339.5 410.91,-277.12 269.88,-235.64"/>
<polygon fill="#475569" stroke="#475569" stroke-width="2.4" points="270.4,-233.61 264.05,-233.93 269.22,-237.63 270.4,-233.61"/>
<text text-anchor="middle" x="645.5" y="-329.1" font-family="Liberation Sans" font-size="13.00" fill="#334155">HTTPS</text>
</g>
<!-- argo&#45;&gt;edge_gateway -->
<g id="edge1" class="edge">
<title>argo&#45;&gt;edge_gateway</title>
<path fill="none" stroke="#475569" stroke-width="2.4" stroke-dasharray="5,2" d="M342.85,-295.88C306.52,-278.18 262.59,-256.79 225.55,-238.75"/>
<polygon fill="#475569" stroke="#475569" stroke-width="2.4" points="226.45,-236.86 220.14,-236.12 224.61,-240.63 226.45,-236.86"/>
<text text-anchor="middle" x="391" y="-262.6" font-family="Liberation Sans" font-size="13.00" fill="#334155">reconciles resources</text>
</g>
<!-- crawler -->
<g id="node4" class="node">
<title>crawler</title>
<path fill="#faf5ff" stroke="#9333ea" stroke-width="2.4" stroke-dasharray="5,2" d="M252,-369C252,-369 42,-369 42,-369 36,-369 30,-363 30,-357 30,-357 30,-308 30,-308 30,-302 36,-296 42,-296 42,-296 252,-296 252,-296 258,-296 264,-302 264,-308 264,-308 264,-357 264,-357 264,-363 258,-369 252,-369"/>
<text text-anchor="middle" x="147" y="-337.7" font-family="Liberation Sans" font-size="16.00" fill="#581c87">Crawler</text>
<text text-anchor="middle" x="147" y="-319.7" font-family="Liberation Sans" font-size="16.00" fill="#581c87">maintained in a separate repo</text>
</g>
<!-- crawler&#45;&gt;edge_gateway -->
<g id="edge2" class="edge">
<title>crawler&#45;&gt;edge_gateway</title>
<path fill="none" stroke="#475569" stroke-width="2.4" stroke-dasharray="5,2" d="M147,-295.7C147,-279.24 147,-259.6 147,-242.45"/>
<polygon fill="#475569" stroke="#475569" stroke-width="2.4" points="149.1,-242.25 147,-236.25 144.9,-242.25 149.1,-242.25"/>
<text text-anchor="middle" x="224" y="-262.6" font-family="Liberation Sans" font-size="13.00" fill="#334155">authenticated crawler API</text>
</g>
<!-- caddy -->
<g id="node6" class="node">
<title>caddy</title>
<path fill="#ecfeff" stroke="#0f766e" stroke-width="2.4" d="M556,-236C556,-236 346,-236 346,-236 340,-236 334,-230 334,-224 334,-224 334,-175 334,-175 334,-169 340,-163 346,-163 346,-163 556,-163 556,-163 562,-163 568,-169 568,-175 568,-175 568,-224 568,-224 568,-230 562,-236 556,-236"/>
<text text-anchor="middle" x="451" y="-204.7" font-family="Liberation Sans" font-size="16.00" fill="#134e4a">Caddy</text>
<text text-anchor="middle" x="451" y="-186.7" font-family="Liberation Sans" font-size="16.00" fill="#134e4a">2 replicas</text>
</g>
<!-- edge_gateway&#45;&gt;caddy -->
<g id="edge3" class="edge">
<title>edge_gateway&#45;&gt;caddy</title>
<path fill="none" stroke="#475569" stroke-width="2.4" d="M264.27,-199.5C285.4,-199.5 306.53,-199.5 327.67,-199.5"/>
<polygon fill="#475569" stroke="#475569" stroke-width="2.4" points="327.93,-201.6 333.93,-199.5 327.93,-197.4 327.93,-201.6"/>
</g>
<!-- varnish -->
<g id="node7" class="node">
<title>varnish</title>
<path fill="#fefce8" stroke="#ca8a04" stroke-width="2.4" d="M860,-236C860,-236 650,-236 650,-236 644,-236 638,-230 638,-224 638,-224 638,-175 638,-175 638,-169 644,-163 650,-163 650,-163 860,-163 860,-163 866,-163 872,-169 872,-175 872,-175 872,-224 872,-224 872,-230 866,-236 860,-236"/>
<text text-anchor="middle" x="755" y="-204.7" font-family="Liberation Sans" font-size="16.00" fill="#713f12">Varnish</text>
<text text-anchor="middle" x="755" y="-186.7" font-family="Liberation Sans" font-size="16.00" fill="#713f12">2 replicas</text>
</g>
<!-- caddy&#45;&gt;varnish -->
<g id="edge4" class="edge">
<title>caddy&#45;&gt;varnish</title>
<path fill="none" stroke="#475569" stroke-width="2.4" d="M568.27,-199.5C589.4,-199.5 610.53,-199.5 631.67,-199.5"/>
<polygon fill="#475569" stroke="#475569" stroke-width="2.4" points="631.93,-201.6 637.93,-199.5 631.93,-197.4 631.93,-201.6"/>
</g>
<!-- web -->
<g id="node8" class="node">
<title>web</title>
<path fill="#ecfeff" stroke="#0f766e" stroke-width="2.4" d="M1164,-236C1164,-236 954,-236 954,-236 948,-236 942,-230 942,-224 942,-224 942,-175 942,-175 942,-169 948,-163 954,-163 954,-163 1164,-163 1164,-163 1170,-163 1176,-169 1176,-175 1176,-175 1176,-224 1176,-224 1176,-230 1170,-236 1164,-236"/>
<text text-anchor="middle" x="1059" y="-204.7" font-family="Liberation Sans" font-size="16.00" fill="#134e4a">MediaWiki (Canasta)</text>
<text text-anchor="middle" x="1059" y="-186.7" font-family="Liberation Sans" font-size="16.00" fill="#134e4a">2 replicas</text>
</g>
<!-- varnish&#45;&gt;web -->
<g id="edge5" class="edge">
<title>varnish&#45;&gt;web</title>
<path fill="none" stroke="#475569" stroke-width="2.4" d="M872.27,-199.5C893.4,-199.5 914.53,-199.5 935.67,-199.5"/>
<polygon fill="#475569" stroke="#475569" stroke-width="2.4" points="935.93,-201.6 941.93,-199.5 935.93,-197.4 935.93,-201.6"/>
</g>
<!-- cache -->
<g id="node10" class="node">
<title>cache</title>
<path fill="#ecfeff" stroke="#0f766e" stroke-width="2.4" d="M860,-103C860,-103 650,-103 650,-103 644,-103 638,-97 638,-91 638,-91 638,-42 638,-42 638,-36 644,-30 650,-30 650,-30 860,-30 860,-30 866,-30 872,-36 872,-42 872,-42 872,-91 872,-91 872,-97 866,-103 860,-103"/>
<text text-anchor="middle" x="755" y="-71.7" font-family="Liberation Sans" font-size="16.00" fill="#134e4a">Cache automation</text>
<text text-anchor="middle" x="755" y="-53.7" font-family="Liberation Sans" font-size="16.00" fill="#134e4a">CronJobs • rewarm worker</text>
</g>
<!-- varnish&#45;&gt;cache -->
<!-- state -->
<g id="node9" class="node">
<title>state</title>
<path fill="#fff1f2" stroke="#e11d48" stroke-width="2.4" d="M1468,-236C1468,-236 1258,-236 1258,-236 1252,-236 1246,-230 1246,-224 1246,-224 1246,-175 1246,-175 1246,-169 1252,-163 1258,-163 1258,-163 1468,-163 1468,-163 1474,-163 1480,-169 1480,-175 1480,-175 1480,-224 1480,-224 1480,-230 1474,-236 1468,-236"/>
<text text-anchor="middle" x="1363" y="-213.7" font-family="Liberation Sans" font-size="16.00" fill="#881337">Application state</text>
<text text-anchor="middle" x="1363" y="-195.7" font-family="Liberation Sans" font-size="16.00" fill="#881337">MariaDB • Redis • Elasticsearch</text>
<text text-anchor="middle" x="1363" y="-177.7" font-family="Liberation Sans" font-size="16.00" fill="#881337">NFS • RWX volumes</text>
</g>
<!-- web&#45;&gt;state -->
<g id="edge6" class="edge">
<title>web&#45;&gt;state</title>
<path fill="none" stroke="#475569" stroke-width="2.4" d="M1176.27,-199.5C1197.4,-199.5 1218.53,-199.5 1239.67,-199.5"/>
<polygon fill="#475569" stroke="#475569" stroke-width="2.4" points="1239.93,-201.6 1245.93,-199.5 1239.93,-197.4 1239.93,-201.6"/>
</g>
<!-- cache&#45;&gt;varnish -->
<g id="edge7" class="edge">
<title>cache:n&#45;&gt;varnish:s</title>
<path fill="none" stroke="#475569" stroke-width="2.4" d="M755,-103C755,-103 755,-141.1 755,-156.58"/>
<polygon fill="#475569" stroke="#475569" stroke-width="2.4" points="752.9,-157 755,-163 757.1,-157 752.9,-157"/>
<text text-anchor="middle" x="813" y="-129.6" font-family="Liberation Sans" font-size="13.00" fill="#334155">discover + warm</text>
</g>
<!-- jobs -->
<g id="node11" class="node">
<title>jobs</title>
<path fill="#ecfeff" stroke="#0f766e" stroke-width="2.4" d="M1468,-103C1468,-103 1258,-103 1258,-103 1252,-103 1246,-97 1246,-91 1246,-91 1246,-42 1246,-42 1246,-36 1252,-30 1258,-30 1258,-30 1468,-30 1468,-30 1474,-30 1480,-36 1480,-42 1480,-42 1480,-91 1480,-91 1480,-97 1474,-103 1468,-103"/>
<text text-anchor="middle" x="1363" y="-71.7" font-family="Liberation Sans" font-size="16.00" fill="#134e4a">Job runners</text>
<text text-anchor="middle" x="1363" y="-53.7" font-family="Liberation Sans" font-size="16.00" fill="#134e4a">2 replicas</text>
</g>
<!-- jobs&#45;&gt;state -->
<g id="edge8" class="edge">
<title>jobs:n&#45;&gt;state:s</title>
<path fill="none" stroke="#475569" stroke-width="2.4" d="M1363,-103C1363,-103 1363,-141.1 1363,-156.58"/>
<polygon fill="#475569" stroke="#475569" stroke-width="2.4" points="1360.9,-157 1363,-163 1365.1,-157 1360.9,-157"/>
</g>
</g>
</svg>
